<?xml version="1.0" encoding="utf-8"?>
<!-- Generator: Adobe Illustrator 27.0.0, SVG Export Plug-In . SVG Version: 6.00 Build 0)  -->
<svg version="1.1" id="Слой_1" xmlns="http://www.w3.org/2000/svg" xmlns:xlink="http://www.w3.org/1999/xlink" x="0px" y="0px"
	 viewBox="0 0 1080 1080" style="enable-background:new 0 0 1080 1080;" xml:space="preserve">
<style type="text/css">
	.st0{fill:#FF0000;stroke:#FF0000;stroke-miterlimit:10;}
	.st1{stroke:#000000;stroke-miterlimit:10;}
</style>
<polygon class="st0" points="631.5,646.3 614.5,717.3 992.5,554.3 691.5,411.3 675.5,472.3 832.5,553.3 "/>
<polygon class="st0" points="132,548.8 443.2,688.7 458.6,627.8 289.5,549.3 505,445.4 522,378.7 "/>
<path class="st1" d="M479.5,754.3"/>
<path class="st1" d="M517.3,715.2l2.8,0.8c15.1,4.4,31-4.2,35.4-19.4l57.9-197.4c4.4-15.1-4.2-31-19.4-35.4l-2.8-0.8
	c-15.1-4.4-31,4.2-35.4,19.4l-57.9,197.4C493.5,694.9,502.2,710.8,517.3,715.2z"/>
<path class="st0" d="M607.5,441.3L607.5,441.3c16.6,0,30-13.4,30-30l0,0c0-16.6-13.4-30-30-30l0,0c-16.6,0-30,13.4-30,30l0,0
	C577.5,427.9,590.9,441.3,607.5,441.3z"/>
</svg>
